<?xml version="1.0" encoding="utf-8"?><svg xmlns="http://www.w3.org/2000/svg" xmlns:xlink="http://www.w3.org/1999/xlink"><symbol viewBox="0 0 100 100" id="1" xmlns="http://www.w3.org/2000/svg"><path d="M95.41 56.31c-.89-5.34-6.77-19.76-7-20.37a1.5 1.5 0 00-2.78 0c-.25.61-6.12 15-7 20.37a6.79 6.79 0 001.62 5.57 8.95 8.95 0 0013.59 0 6.79 6.79 0 001.57-5.57zm-3.91 3.63a5.95 5.95 0 01-9 0 3.83 3.83 0 01-.95-3.14c.58-3.48 3.62-11.57 5.45-16.24 1.83 4.67 4.87 12.76 5.45 16.24a3.83 3.83 0 01-.95 3.14zm-22.11-2a1.5 1.5 0 00-2.78 0c-.25.61-6.12 15-7 20.37a6.79 6.79 0 001.62 5.57 8.95 8.95 0 0013.59 0 6.79 6.79 0 001.62-5.57c-.93-5.31-6.8-19.76-7.05-20.37zm3.12 24a5.95 5.95 0 01-9 0 3.83 3.83 0 01-.95-3.14c.58-3.48 3.62-11.57 5.45-16.24 1.83 4.67 4.87 12.76 5.45 16.24a3.83 3.83 0 01-.96 3.14zM67 41a9.11 9.11 0 006.79-3.13 6.79 6.79 0 001.62-5.57c-.89-5.34-6.77-19.76-7-20.37a1.5 1.5 0 00-2.78 0c-.25.61-6.12 15-7 20.37a6.79 6.79 0 001.62 5.57A9.11 9.11 0 0067 41zm-5.45-8.2c.58-3.48 3.62-11.57 5.45-16.24 1.83 4.67 4.87 12.76 5.45 16.24a3.83 3.83 0 01-.95 3.13 5.95 5.95 0 01-9 0 3.83 3.83 0 01-.95-3.12zm-11.21 7.77C46.17 32.75 30.88 12 30.23 11.11A1.5 1.5 0 0029 10.5a1.5 1.5 0 00-1.2.6C27.15 12 11.54 33 7.4 40.93c-5.93 11.44-5.87 21.29.18 28.48A16.26 16.26 0 0020 75.53a15.29 15.29 0 007.48-2V86A7.77 7.77 0 0035 94a1.5 1.5 0 000-3 4.78 4.78 0 01-4.5-5V73.33c6.56 3.49 14.48 1.9 19.66-4.26 6.42-7.63 6.48-16.69.18-28.5zm-2.47 26.56c-4.69 5.57-11.75 6.61-17.37 2.67V33.5a1.5 1.5 0 00-3 0V70c-5.6 4.11-12.89 3.13-17.62-2.48-6.58-7.82-3.53-18 .18-25.17 3.37-6.5 15.13-22.6 18.95-27.78C32.78 19.69 44.29 35.6 47.69 42c5.73 10.72 5.78 18.47.18 25.13z"/></symbol><symbol viewBox="0 0 100.353 100.352" id="2" xmlns="http://www.w3.org/2000/svg"><path d="M8.218 39.791a1.502 1.502 0 001.851-1.036c3.682-13.05 13.748-23.566 26.523-27.908L34.5 16.461a1.502 1.502 0 002.812 1.048l3.296-8.845a1.5 1.5 0 00-.875-1.927l-8.99-3.398a1.5 1.5 0 10-1.061 2.807l5.392 2.038c-13.44 4.77-23.995 15.948-27.891 29.757a1.497 1.497 0 001.035 1.85zm30.367 50.017C25.528 86.11 15.009 76.01 10.689 63.21l5.91 2.098a1.5 1.5 0 101.004-2.826l-8.895-3.158a1.498 1.498 0 00-1.913.904L3.537 69.27a1.5 1.5 0 002.822 1.018l1.838-5.1c4.84 13.245 15.914 23.64 29.571 27.508a1.5 1.5 0 10.817-2.888zm52.947-29.554a1.498 1.498 0 00-1.852 1.035C85.995 74.318 75.942 84.82 63.188 89.164l2.602-5.866a1.5 1.5 0 10-2.742-1.216l-3.827 8.629a1.5 1.5 0 00.757 1.977l8.768 3.938a1.5 1.5 0 001.228-2.736l-4.906-2.204c13.244-4.842 23.636-15.917 27.5-29.579a1.502 1.502 0 00-1.036-1.853zm4.137-32.038a1.5 1.5 0 00-1.983.751L91.32 34.22C86.364 21.27 75.432 11.131 61.988 7.323a1.5 1.5 0 10-.819 2.887c12.648 3.581 22.915 13.171 27.474 25.401l-5.554-2.47a1.5 1.5 0 00-1.218 2.741l8.625 3.836a1.495 1.495 0 001.976-.754L96.42 30.2a1.5 1.5 0 00-.751-1.984zm-33.37 33.598c.053-.052.102-.104.138-.149 3.383-4.291 6.417-16.077 6.874-19.066.477-3.14 2.158-13.941 2.158-13.942a1.494 1.494 0 00-.775-1.536 1.52 1.52 0 00-1.726.205c-.014.012-1.41 1.219-6.537 3.218-5.39 2.102-20.588 9.203-21.316 9.547-5.109 2.792-8.284 8.095-8.284 13.838 0 3.991 1.497 7.631 3.944 10.418l-4.329 4.998a1.5 1.5 0 102.267 1.964l4.246-4.903a15.724 15.724 0 009.694 3.344c5.605.001 10.808-3.033 13.646-7.936zm-26.468-7.885c0-4.646 2.576-8.94 6.638-11.163.157-.073 15.752-7.361 21.051-9.427l.171-.069-24.94 28.795a12.764 12.764 0 01-2.92-8.136zm12.823 12.822c-2.903 0-5.576-.981-7.728-2.614l26.802-30.945c-.508 3.272-1.124 7.246-1.383 8.954-.524 3.432-3.527 14.02-6.171 17.54a1.527 1.527 0 00-.362.431c-2.277 4.092-6.552 6.634-11.158 6.634z"/></symbol><symbol viewBox="0 0 101 101" id="3" xmlns="http://www.w3.org/2000/svg"><path d="M69 36.5a19.4 19.4 0 00-13.75 5.71c-.38-.56-.79-1.08-1.21-1.62a5.5 5.5 0 01-.58-5.93 20.33 20.33 0 001.6-15.13A18.69 18.69 0 0038.06 6a18.35 18.35 0 00-13.68 5.11 19.35 19.35 0 00-5.95 14 20.16 20.16 0 002.35 9.44 5.5 5.5 0 01-.6 5.95 22 22 0 00-4.68 13.65c0 11.24 8 20.79 18.22 21.75.37 0 .81.06 1.28.07V93.5a1.5 1.5 0 003 0V76c1 0 1.89-.06 2.56-.11a18.92 18.92 0 0013.17-7.41A17.64 17.64 0 0066 75.41c.54 0 1.25.08 2 .09v18a1.5 1.5 0 003 0v-18l1.14-.07c9.17-.79 16.36-9.27 16.36-19.32A19.56 19.56 0 0069 36.5zM40.3 72.88c-.59 0-1.42.08-2.3.1V25.5a1.5 1.5 0 00-3 0v33.38l-7.94-7.94a1.5 1.5 0 00-2.12 2.12l10 10H35V73l-1-.06c-8.69-.82-15.5-9.06-15.5-18.76a19 19 0 014-11.82 8.5 8.5 0 00.88-9.2 17.16 17.16 0 01-2-8 16.34 16.34 0 015-11.79A15.37 15.37 0 0137.91 9a15.69 15.69 0 0114.28 11.36 17.31 17.31 0 01-1.37 12.88 8.51 8.51 0 00.86 9.19 23 23 0 011.55 2.18 19.49 19.49 0 00-3.73 11.46A20.32 20.32 0 0052 65.8a16.13 16.13 0 01-11.7 7.08zm31.58-.49l-.89.05v-5.83l.12-.11 8-9a1.5 1.5 0 10-2.24-2L71 62.12V49.5a1.5 1.5 0 00-3 0v23c-.67 0-1.3 0-1.75-.07-7.71-.71-13.75-7.89-13.75-16.35a16.5 16.5 0 1133 0c0 8.49-5.98 15.66-13.61 16.32z"/></symbol><symbol viewBox="0 0 100.75 100.75" id="4" xmlns="http://www.w3.org/2000/svg"><path d="M90.298 49.014c2.29-1.474 3.795-3.915 3.795-6.676 0-4.478-3.971-8.12-8.852-8.12H61.655c1.115-2.09 2.244-5.515 1.986-10.615-.507-10.455-6.851-15.879-10.52-17.436-2.164-.918-4.519-.7-6.298.583-1.786 1.288-3.802 4.246-3.263 11.026.558 7.046-8.411 14.689-12.781 17.973v-2.682a1.5 1.5 0 00-1.5-1.5H9.416a1.5 1.5 0 00-1.5 1.5v54.182a1.5 1.5 0 001.5 1.5h19.863a1.5 1.5 0 001.5-1.5v-2.737c5.654 2.033 21.553 7.511 29.41 7.768l15.777.11c4.875 0 8.841-3.805 8.841-8.481 0-2.153-.844-4.115-2.223-5.614 4.208-.655 7.434-4.148 7.434-8.359 0-2.243-.921-4.28-2.411-5.798 3.735-.996 6.487-4.278 6.487-8.172-.001-2.876-1.505-5.418-3.796-6.952zM10.916 85.748V34.566h16.863v4.02c-.002.04-.001.08 0 .12V82.34c-.001.041-.003.082 0 .123v3.286H10.916zm74.325-24.294h-7.689l-.01.001h-1.576a1.5 1.5 0 000 3h5.195c3.229 0 5.856 2.459 5.856 5.48 0 3.021-2.627 5.479-5.856 5.479h-5.175l-.02-.001h-5.514a1.5 1.5 0 000 3h5.504l.01.001h.02c3.211.011 5.82 2.47 5.82 5.494 0 3.022-2.62 5.481-5.83 5.481l-15.728-.109c-7.822-.257-25.169-6.397-29.469-7.961V39.456c3.249-2.235 16.556-12.025 15.771-21.917-.334-4.205.386-7.172 2.027-8.355 1.365-.983 2.926-.442 3.373-.254 3.024 1.284 8.26 5.85 8.695 14.823.395 7.798-2.763 10.715-2.884 10.823a1.5 1.5 0 00.971 2.643H85.24c3.227 0 5.852 2.297 5.852 5.12 0 2.837-2.625 5.146-5.852 5.146h-6.413a1.5 1.5 0 100 3h6.413c3.227 0 5.852 2.458 5.852 5.481.001 3.025-2.624 5.488-5.851 5.488z"/></symbol><symbol viewBox="0 0 100.25 100.25" id="5" xmlns="http://www.w3.org/2000/svg"><path d="M83 47.5a1.5 1.5 0 00-1.5 1.5v17.5h-49v-49H50a1.5 1.5 0 100-3H31a1.5 1.5 0 00-1.5 1.5v13.5H17a1.5 1.5 0 00-1.5 1.5v52a1.5 1.5 0 001.5 1.5h52a1.5 1.5 0 001.5-1.5V69.5H83a1.5 1.5 0 001.5-1.5V49a1.5 1.5 0 00-1.5-1.5zm-15.5 34h-49v-49h11V68a1.5 1.5 0 001.5 1.5h36.5v12z"/><path d="M83 14.5H64a1.5 1.5 0 100 3h15.379L54.94 41.939a1.5 1.5 0 102.122 2.121l24.439-24.439V35a1.5 1.5 0 103 0V16A1.501 1.501 0 0083 14.5z"/></symbol><symbol viewBox="0 0 100.4 100.4" id="6" xmlns="http://www.w3.org/2000/svg"><path d="M50 96.4C24.4 96.4 3.6 75.6 3.6 50 3.6 24.4 24.4 3.6 50 3.6S96.4 24.4 96.4 50c0 25.6-20.8 46.4-46.4 46.4zm0-89.8C26.1 6.6 6.6 26.1 6.6 50S26.1 93.4 50 93.4 93.4 73.9 93.4 50 73.9 6.6 50 6.6z"/><path d="M32.6 64.2c-4.8 0-8.6-5.6-8.6-12.8s3.8-12.8 8.6-12.8 8.6 5.6 8.6 12.8-3.7 12.8-8.6 12.8zm0-22.6c-3 0-5.6 4.5-5.6 9.8s2.6 9.8 5.6 9.8c3 0 5.6-4.5 5.6-9.8s-2.5-9.8-5.6-9.8zm18.6 22.6c-4.8 0-8.6-5.6-8.6-12.8s3.8-12.8 8.6-12.8 8.6 5.6 8.6 12.8-3.8 12.8-8.6 12.8zm0-22.6c-3 0-5.6 4.5-5.6 9.8s2.6 9.8 5.6 9.8c3 0 5.6-4.5 5.6-9.8s-2.5-9.8-5.6-9.8zM21.1 64.2c-.8 0-1.5-.7-1.5-1.5v-19l-3.5 2.7c-.7.5-1.6.4-2.1-.3s-.4-1.6.3-2.1l5.9-4.6c.5-.4 1.1-.4 1.6-.2.5.3.8.8.8 1.3v22.1c0 .9-.7 1.6-1.5 1.6zm45.7-.2c-.3 0-.6-.1-.8-.3-.7-.5-.9-1.4-.4-2.1l14.6-21.7c.5-.7 1.4-.9 2.1-.4.7.5.9 1.4.4 2.1L68 63.3c-.3.5-.8.7-1.2.7zm1.7-13.6c-3.3 0-6.1-2.7-6.1-6.1 0-3.3 2.7-6.1 6.1-6.1 3.3 0 6.1 2.7 6.1 6.1 0 3.4-2.8 6.1-6.1 6.1zm0-9.1c-1.7 0-3.1 1.4-3.1 3.1 0 1.7 1.4 3.1 3.1 3.1 1.7 0 3.1-1.4 3.1-3.1 0-1.7-1.4-3.1-3.1-3.1zm12.7 21.6c-3.3 0-6.1-2.7-6.1-6.1 0-3.3 2.7-6.1 6.1-6.1 3.3 0 6.1 2.7 6.1 6.1 0 3.4-2.7 6.1-6.1 6.1zm0-9.1c-1.7 0-3.1 1.4-3.1 3.1 0 1.7 1.4 3.1 3.1 3.1 1.7 0 3.1-1.4 3.1-3.1 0-1.8-1.4-3.1-3.1-3.1z"/></symbol><symbol viewBox="0 0 100 100" id="7" xmlns="http://www.w3.org/2000/svg"><path d="M86.5 17h-73a1.5 1.5 0 00-1.5 1.5v48a1.5 1.5 0 001.5 1.5h20.91l-16 16a1.5 1.5 0 000 2.12l6.47 6.47a1.5 1.5 0 002.12 0L51.59 68H86.5a1.5 1.5 0 001.5-1.5v-48a1.5 1.5 0 00-1.5-1.5zM26 89.38L21.62 85l34.8-34.8 7.34-3-3 7.34zM85 65H54.59l8.52-8.52a1.49 1.49 0 00.33-.49l4.45-10.92a1.5 1.5 0 00-2-2L55 47.56a1.51 1.51 0 00-.49.33L37.41 65H15V20h70z"/><path d="M74 40a7 7 0 10-7-7 7 7 0 007 7zm0-11a4 4 0 11-4 4 4 4 0 014-4zM21 59h13.11a1.5 1.5 0 000-3H23.77l17.5-26.76 8.47 12.95a1.5 1.5 0 102.51-1.64l-9.72-14.87a1.56 1.56 0 00-2.51 0l-20.28 31A1.5 1.5 0 0021 59z"/></symbol><symbol viewBox="0 0 101 101" id="8" xmlns="http://www.w3.org/2000/svg"><path d="M90.94 53.35A14.34 14.34 0 0081 49.1V28.78a1.47 1.47 0 00-.67-1.24L43.73 3.13a1.49 1.49 0 00-1.67 0L5.67 27.39A1.49 1.49 0 005 28.64v34.09A1.48 1.48 0 005.68 64L43 88.43a1.52 1.52 0 001.67 0l24-16.68a1.86 1.86 0 00.29-.27l10.14 17.8a1.54 1.54 0 001.28.77 1.49 1.49 0 001.27-.71L93 71.29a1.08 1.08 0 00.12-.24 14.47 14.47 0 00-2.15-17.7zm-47.1-2.07l-16.56-11 33.17-22.39 16.88 11.25zm-1-45.1l14.87 9.91-33.13 22.37-15.07-10zM8 31l34 22.66v30.52L8 61.92zm37 53.54V54.11l33-21.82v17.05a14.52 14.52 0 00-11.83 14.23 11.39 11.39 0 001.26 5.51 1.33 1.33 0 00-.4.19zM92.17 63.6a11.55 11.55 0 01-1.78 6.11 1.63 1.63 0 00-.11.23l-9.81 15.67L71.06 69a1.54 1.54 0 00-.44-.63c-.7-.57-1.45-2.31-1.45-4.77a11.51 11.51 0 0111.51-11.51A11.47 11.47 0 0192.17 63.6z"/><path d="M80.68 56.55a6.35 6.35 0 00-6.35 6.33 6.33 6.33 0 006.34 6.36 6.35 6.35 0 000-12.69zM84 62.9a3.35 3.35 0 01-3.34 3.34 3.32 3.32 0 01-2.36-1 3.26 3.26 0 01-1-2.37 3.34 3.34 0 013.34-3.34A3.35 3.35 0 0184 62.9z"/></symbol><symbol viewBox="0 0 100.25 100.25" id="9" xmlns="http://www.w3.org/2000/svg"><path d="M28.59 84.258l-15.28-.109L16.976 64.9c.009-.047.008-.094.012-.141.004-.043.014-.084.014-.128v-.034l.004-.466c.008-.967.139-1.941.276-2.972.338-2.521.688-5.128-.782-7.72l-3.019-5.32a9.524 9.524 0 01-.202-2.016l.174-20.051c.004-.468.605-.983 1.462-.983h.018l.888.009c.434.004.847.146 1.132.389.124.106.331.326.329.614v.003l.001.01-.085 9.882a1.501 1.501 0 001.487 1.513h.013a1.5 1.5 0 001.5-1.487l.085-9.89-.001-.01.101-11.454c.002-.29.214-.507.34-.611.29-.239.734-.374 1.141-.37l.883.008c.436.004.85.146 1.135.39.124.106.33.326.33.615l-.153 16.707a1.5 1.5 0 001.486 1.514h.014a1.5 1.5 0 001.5-1.486l.153-16.699v-.008l.052-5.73c.002-.29.214-.507.339-.611.29-.239.658-.389 1.146-.37l.875.006c.869.009 1.471.541 1.467 1.011l-.038 4.507-.002.015-.163 17.91a1.5 1.5 0 001.486 1.514h.014a1.5 1.5 0 001.5-1.486l.152-16.679.002-.022v-.001c.002-.238.144-.426.262-.542.285-.28.725-.437 1.223-.438l.878.006c.436.004.849.146 1.134.39.125.106.333.328.33.621l-.144 16.531v.001l-.048 4.326a1.5 1.5 0 001.483 1.517h.017a1.5 1.5 0 001.5-1.483l.03-2.712c0-.014.004-.026.004-.04l.025-2.912 3.423.025c.5.003.92.438.916.947l-.034 4.877a1.5 1.5 0 001.489 1.511h.011a1.5 1.5 0 001.5-1.489l.034-4.877c.016-2.172-1.731-3.953-3.895-3.969l-3.418-.025.107-12.201c.01-1.102-.493-2.169-1.38-2.928-.825-.706-1.911-1.1-3.062-1.109l-.874-.006a5.423 5.423 0 00-1.479.208l.017-1.959c.018-2.2-1.974-4.011-4.442-4.036L28.772 5c-1.137-.012-2.24.365-3.076 1.056-.9.742-1.422 1.8-1.431 2.9l-.018 1.956a4.977 4.977 0 00-1.473-.233l-.883-.008c-1.113-.004-2.237.365-3.074 1.055-.902.743-1.424 1.801-1.433 2.901l-.067 7.687a4.98 4.98 0 00-1.467-.232l-.888-.009c-2.483-.036-4.486 1.754-4.507 3.957l-.174 20.055c-.007.98.103 1.963.325 2.921.032.141.085.276.156.402l3.13 5.516c.972 1.714.715 3.627.419 5.842-.145 1.077-.294 2.191-.304 3.346l-.003.366-3.978 20.884a1.502 1.502 0 001.462 1.781l17.08.123h.011a1.5 1.5 0 001.5-1.489 1.502 1.502 0 00-1.489-1.519z"/><path d="M92.584 35.54l-.623-.628a4.972 4.972 0 00-1.213-.902l1.382-1.391c1.547-1.553 1.394-4.243-.34-5.993l-.624-.634c-.906-.912-2.113-1.436-3.311-1.436h-.003c-1.028 0-1.976.383-2.669 1.079l-1.364 1.371a4.969 4.969 0 00-.881-1.199l-.623-.632c-.905-.914-2.112-1.438-3.312-1.439h-.002c-1.029 0-1.978.384-2.67 1.081L66.262 34.936a5.016 5.016 0 00-.882-1.209l-.622-.624c-.904-.913-2.11-1.438-3.31-1.439h-.004c-1.029 0-1.977.383-2.669 1.08l-9.221 9.268a12.303 12.303 0 00-2.121 2.868 1.529 1.529 0 00-.145.394l-1.221 5.689c-.494 2.311-2.198 3.745-4.171 5.407-.731.616-1.483 1.258-2.201 1.965l-17.901 11.5a1.5 1.5 0 00-.257 2.316l24.088 24.398a1.498 1.498 0 002.303-.204l12.014-17.472.258-.258c.811-.815 1.497-1.703 2.16-2.562 1.364-1.765 2.542-3.29 4.43-3.789l6.103-1.61c.142-.037.276-.095.401-.171a12.55 12.55 0 002.304-1.816l14.096-14.164c1.543-1.554 1.389-4.243-.345-5.996l-.626-.631a4.984 4.984 0 00-1.209-.899l5.411-5.438c1.548-1.554 1.395-4.244-.341-5.999zM90.8 39.421l-8.049 8.09-.009.006-6.952 6.985a1.5 1.5 0 002.127 2.116l6.946-6.979.009-.006.003-.003c.158-.159.379-.192.536-.192h.001c.399 0 .84.206 1.181.549l.625.63c.619.626.681 1.435.349 1.769L73.474 66.547a9.474 9.474 0 01-1.567 1.263l-5.882 1.552c-2.872.76-4.554 2.936-6.037 4.855-.635.821-1.234 1.597-1.911 2.277l-.354.354c-.005.005-.007.012-.012.018-.058.06-.114.121-.163.192L46.486 93.147 24.973 71.356l16.453-10.57c.092-.059.174-.128.249-.202l.004-.003c.666-.67 1.421-1.305 2.15-1.92 2.194-1.848 4.463-3.758 5.172-7.072l1.175-5.474a9.264 9.264 0 011.505-1.99l9.221-9.268c.161-.162.383-.195.542-.195h.001c.398 0 .84.206 1.185.554l.621.623c.619.627.68 1.437.348 1.771l-.001.002-6.301 6.331a1.5 1.5 0 002.127 2.117l7.412-7.448.001-.002 11.622-11.679c.16-.162.384-.196.542-.196h.001c.399 0 .841.206 1.18.547l.625.635c.62.623.68 1.43.347 1.765v.001l-.003.004-15.002 15.076a1.5 1.5 0 002.127 2.117l15.855-15.934.004-.007 3.173-3.187c.161-.162.385-.196.544-.196h.001c.399 0 .842.206 1.18.546l.622.632c.62.626.682 1.435.349 1.769l-3.174 3.193-.001.001-15.858 15.937a1.5 1.5 0 002.127 2.117L88.104 36.67l.003-.002c.16-.16.382-.194.54-.194h.001c.398 0 .841.206 1.183.551l.622.627c.619.626.68 1.435.347 1.769z"/></symbol></svg>